<?xml version="1.0" standalone="no"?>
<!DOCTYPE svg PUBLIC "-//W3C//DTD SVG 20010904//EN"
 "http://www.w3.org/TR/2001/REC-SVG-20010904/DTD/svg10.dtd">
<svg version="1.0" xmlns="http://www.w3.org/2000/svg"
 width="664.000000pt" height="664.000000pt" viewBox="0 0 664.000000 664.000000"
 preserveAspectRatio="xMidYMid meet">
<metadata>
Created by potrace 1.14, written by Peter Selinger 2001-2017
</metadata>
<g transform="translate(0.000000,664.000000) scale(0.100000,-0.100000)"
fill="#000000" stroke="none">
<path d="M2836 5163 c-4 -5 -11 -8 -14 -9 -8 -1 -37 -13 -117 -49 -93 -41
-111 -49 -250 -110 -71 -31 -154 -67 -183 -81 -29 -13 -54 -24 -57 -24 -2 0
-32 -13 -67 -29 -35 -16 -126 -57 -203 -91 -77 -34 -160 -71 -185 -82 -25 -11
-65 -29 -90 -40 -25 -11 -73 -33 -108 -49 -35 -16 -66 -29 -68 -29 -3 0 -32
-13 -65 -29 -32 -17 -59 -28 -59 -26 0 2 -21 -6 -47 -19 -27 -13 -115 -54
-198 -91 -82 -37 -170 -76 -195 -87 -52 -24 -125 -57 -190 -86 -25 -11 -85
-39 -135 -62 -49 -23 -110 -51 -135 -62 -95 -43 -296 -139 -320 -152 -32 -19
-50 -47 -32 -53 6 -3 12 -12 12 -22 0 -9 4 -21 9 -26 4 -6 42 -75 84 -155 72
-140 128 -248 258 -497 34 -65 81 -154 104 -198 47 -87 102 -192 203 -385 36
-69 81 -152 98 -185 18 -33 48 -89 66 -125 76 -145 130 -246 139 -254 5 -6 9
-18 9 -28 0 -10 4 -18 8 -18 5 0 17 -19 28 -42 10 -24 21 -45 24 -48 3 -3 25
-43 49 -90 24 -47 55 -107 70 -135 15 -27 46 -84 68 -125 167 -310 158 -296
184 -292 12 2 50 17 84 32 34 16 78 31 99 34 32 5 42 2 67 -23 16 -16 29 -37
29 -45 0 -9 5 -16 10 -16 6 0 10 -6 10 -13 0 -7 16 -38 36 -70 25 -40 42 -57
56 -57 18 0 283 108 450 184 90 41 135 61 393 174 249 110 334 148 410 182 22
10 87 39 145 65 58 26 123 55 145 65 22 10 108 48 190 85 83 37 177 79 210 94
33 16 107 50 165 76 58 27 141 65 185 85 44 21 105 48 135 61 30 12 57 26 60
30 3 3 16 10 30 14 14 4 80 35 148 68 l122 59 -61 117 c-34 64 -76 143 -94
176 -18 33 -75 141 -127 240 -53 99 -117 221 -143 270 -26 50 -65 122 -85 160
-20 39 -57 108 -82 155 -25 47 -67 126 -93 175 -76 145 -117 219 -128 233 -5
6 -6 12 -2 12 4 0 3 6 -3 13 -6 6 -27 44 -47 82 -21 39 -54 102 -75 140 -20
39 -66 124 -100 190 -35 66 -76 143 -91 170 -16 28 -43 79 -61 115 -18 36 -35
67 -38 70 -3 3 -23 39 -44 80 -21 41 -52 100 -69 130 -16 30 -37 69 -46 85
-32 60 -51 75 -80 64 -14 -6 -28 -11 -31 -11 -9 -1 -34 -10 -55 -18 -139 -61
-183 -52 -227 42 -25 53 -67 118 -76 118 -5 0 -12 -3 -16 -7z m394 -295 c8
-13 20 -32 26 -43 6 -11 29 -52 52 -90 22 -39 53 -95 70 -125 16 -30 41 -75
54 -100 43 -76 84 -153 115 -210 17 -30 47 -86 68 -125 21 -38 52 -97 69 -130
17 -33 34 -62 37 -65 3 -3 24 -41 46 -85 22 -44 51 -100 65 -125 14 -25 50
-92 80 -150 56 -106 101 -190 198 -375 29 -55 69 -129 88 -165 83 -158 138
-262 183 -350 27 -52 53 -100 59 -107 5 -7 10 -19 10 -27 0 -8 3 -16 8 -18 13
-6 92 -172 84 -179 -11 -10 -368 -169 -380 -169 -5 0 -15 -7 -22 -15 -7 -9
-15 -13 -18 -11 -3 3 -17 -1 -31 -9 -30 -16 -160 -75 -166 -75 -3 0 -36 -15
-75 -34 -38 -19 -70 -32 -70 -29 0 3 -6 1 -12 -5 -7 -5 -67 -33 -133 -62 -66
-29 -153 -68 -193 -86 -41 -19 -75 -34 -77 -34 -4 0 -88 -38 -203 -91 -34 -16
-64 -29 -67 -29 -2 0 -28 -11 -57 -24 -98 -45 -162 -73 -318 -141 -85 -37
-188 -83 -228 -101 -40 -19 -74 -34 -76 -34 -2 0 -34 -14 -72 -32 -38 -17 -73
-33 -79 -34 -5 -2 -76 -32 -157 -67 l-147 -65 -15 24 c-9 13 -16 28 -16 34 0
5 -3 10 -7 10 -12 0 -33 51 -33 78 0 23 35 43 255 142 28 12 88 40 133 61 46
22 86 39 88 39 2 0 52 23 110 50 58 28 108 50 109 50 2 0 36 15 77 34 62 28
290 129 338 150 8 3 22 10 30 15 8 5 47 23 85 39 143 62 211 93 237 108 15 8
29 14 30 13 2 0 28 10 58 24 129 57 270 121 338 153 39 19 74 34 77 34 3 0 45
20 95 45 49 25 96 45 105 45 8 0 15 3 15 8 0 4 21 16 48 26 26 10 54 25 64 33
9 8 22 16 30 17 7 1 23 8 35 16 22 14 22 15 -94 240 -64 124 -135 261 -158
305 -23 44 -73 139 -110 210 -37 72 -78 149 -91 172 -13 23 -56 104 -96 180
-39 76 -86 165 -104 198 -18 33 -48 89 -66 125 -70 135 -131 245 -140 258 -6
6 -7 12 -3 12 4 0 3 6 -3 13 -24 29 -312 593 -312 611 0 19 85 65 120 66 15 0
31 -9 40 -22z m-1467 -1229 c51 -27 130 -135 126 -173 -6 -50 3 -67 56 -106
62 -46 95 -100 101 -168 5 -62 -18 -105 -80 -152 -47 -36 -307 -170 -386 -200
-19 -7 -39 -17 -45 -21 -23 -17 -82 -21 -96 -6 -85 85 -329 536 -329 607 0 22
126 86 350 175 155 63 242 75 303 44z"/>
<path d="M6025 3844 c-60 -25 -119 -48 -130 -51 -11 -3 -27 -11 -35 -18 -8 -7
-26 -16 -40 -20 -13 -4 -71 -30 -128 -56 -57 -27 -110 -49 -118 -49 -27 0 -22
-57 12 -127 35 -71 60 -96 85 -82 11 5 19 8 19 5 0 -2 30 10 68 28 37 18 78
37 92 41 14 4 31 12 37 17 9 7 15 5 20 -7 6 -17 -24 -115 -92 -305 -32 -87
-31 -131 2 -192 45 -83 57 -85 203 -27 69 28 149 61 178 74 29 14 59 25 67 25
8 0 15 4 15 9 0 5 12 12 26 15 52 13 213 99 216 115 10 50 -58 201 -84 185 -4
-3 -20 -8 -35 -10 -14 -3 -51 -16 -82 -30 -31 -14 -65 -30 -76 -35 -11 -5 -39
-13 -62 -18 -49 -10 -52 -4 -32 59 5 19 12 42 14 50 2 8 20 60 40 115 42 116
46 129 46 171 1 29 -25 90 -53 125 -11 14 -50 39 -60 39 -2 0 -52 -21 -113
-46z"/>
<path d="M5080 3419 c-30 -10 -65 -23 -77 -29 -62 -27 -107 -43 -115 -42 -5 1
-8 -2 -8 -7 0 -4 -20 -14 -45 -21 -25 -7 -45 -17 -45 -21 0 -5 -5 -9 -12 -9
-17 0 -135 -58 -143 -70 -4 -6 3 -37 16 -68 29 -74 152 -319 201 -400 21 -34
38 -65 38 -67 0 -11 72 -110 85 -118 17 -9 93 9 163 39 29 13 55 23 57 23 7 1
115 50 135 62 8 5 24 13 36 18 97 43 194 125 217 186 39 105 -10 209 -120 254
-37 15 -41 23 -38 77 2 27 -5 55 -21 88 -27 53 -34 61 -82 95 -46 32 -164 37
-242 10z"/>
</g>
</svg>
